#!OML:ASF F:\VICON\USERDATA\INSTALL\Justin_Nancy\Justin_Nancy.ASF
:FULLY-SPECIFIED
:DEGREES
253
root 0.267074 17.2412 23.5981 1.13483 -0.0928219 0.45985
lowerback 3.72777 -0.159295 -1.49887
upperback -0.365265 -0.226768 2.1959
thorax -2.45188 -0.0785754 3.11632
lowerneck -17.4618 -3.50325 -10.5834
upperneck 19.0196 -3.43538 6.59759
head 9.16328 -1.66696 3.57829
rclavicle 1.74185e-014 1.35174e-014
rhumerus -38.1091 -23.1731 -73.4861
rradius 28.745
rwrist 10.5779
rhand -12.9774 8.60824
rfingers 7.12502
rthumb 13.115 -20.9594
lclavicle 1.74185e-014 1.35174e-014
lhumerus -31.5285 5.09798 83.1881
lradius 39.7069
lwrist 1.53772
lhand -18.1498 21.8478
lfingers 7.12502
lthumb 8.1258 51.6716
rfemur -11.2766 7.02515 24.2013
rtibia 33.6284
rfoot -18.1751 -11.3945
rtoes 2.36121
lfemur -14.8533 -4.62576 -22.0128
ltibia 35.0354
lfoot -17.1718 0.859434
ltoes 2.02667
254
root 0.267039 17.2406 23.6057 1.21597 -0.156867 0.560843
lowerback 3.6581 -0.222586 -1.56863
upperback -0.375662 -0.314527 2.17134
thorax -2.41749 -0.121977 3.13477
lowerneck -17.3126 -3.40409 -10.5775
upperneck 18.8999 -3.31298 6.60344
head 9.08292 -1.60952 3.59425
rclavicle -6.08778e-015 -7.95139e-015
rhumerus -38.272 -22.7838 -73.7042
rradius 29.2781
rwrist 10.3431
rhand -12.9663 8.28379
rfingers 7.12502
rthumb 13.1257 -21.2831
lclavicle -6.08778e-015 -7.95139e-015
lhumerus -31.675 5.16376 83.0432
lradius 39.6752
lwrist 1.63621
lhand -17.8583 21.8609
lfingers 7.12502
lthumb 8.40711 51.6736
rfemur -11.3417 6.96353 24.0655
rtibia 33.6404
rfoot -18.1136 -11.3279
rtoes 2.00573
lfemur -14.9066 -4.58471 -22.135
ltibia 35.0345
lfoot -17.193 0.937584
ltoes 1.7783
255
root 0.267289 17.2408 23.6117 1.26678 -0.190154 0.763048
lowerback 3.62938 -0.271973 -1.73862
upperback -0.381099 -0.389039 2.11944
thorax -2.40134 -0.15744 3.18097
lowerneck -16.9883 -3.32783 -10.5004
upperneck 18.5891 -3.23332 6.51454
head 8.90685 -1.57712 3.55663
rclavicle -1.39398e-014 1.59028e-015
rhumerus -38.4368 -22.7022 -73.7551
rradius 29.6576
rwrist 10.3032
rhand -12.9584 8.32646
rfingers 7.12502
rthumb 13.1333 -21.24
lclavicle -1.39398e-014 1.59028e-015
lhumerus -31.5163 5.22369 82.9489
lradius 39.1471
lwrist 1.68909
lhand -17.741 21.3895
lfingers 7.12502
lthumb 8.52028 51.1977
rfemur -11.3658 6.8043 23.8086
rtibia 33.665
rfoot -18.2351 -11.091
rtoes 2.15955
lfemur -14.9149 -4.61967 -22.3703
ltibia 35.0305
lfoot -17.2813 1.00139
ltoes 1.67552
256
root 0.265512 17.2397 23.6162 1.29108 -0.302945 0.730232
lowerback 3.64233 -0.298202 -1.74164
upperback -0.370229 -0.423461 2.15844
thorax -2.39481 -0.174566 3.22502
lowerneck -16.8037 -3.32043 -10.4261
upperneck 18.378 -3.22054 6.35277
head 8.7965 -1.58293 3.48675
rclavicle 1.1281e-014 7.95139e-015
rhumerus -38.4862 -22.5374 -73.815
rradius 29.832
rwrist 10.1421
rhand -13.1778 8.49521
rfingers 7.12502
rthumb 12.9218 -21.0847
lclavicle 1.1281e-014 7.95139e-015
lhumerus -31.4178 5.35842 82.8885
lradius 38.7423
lwrist 1.54821
lhand -17.9437 21.3816
lfingers 7.12502
lthumb 8.32465 51.1976
rfemur -11.3971 6.80283 23.8436
rtibia 33.7126
rfoot -18.2851 -10.9984
rtoes 2.13828
lfemur -14.9136 -4.54721 -22.3249
ltibia 35.0169
lfoot -17.2587 1.04548
ltoes 1.82189
257
root 0.264535 17.2384 23.6177 1.35115 -0.409165 0.765252
lowerback 3.6276 -0.356958 -1.83754
upperback -0.36366 -0.504949 2.20724
thorax -2.37302 -0.214111 3.33404
lowerneck -16.6736 -3.30533 -10.4422
upperneck 18.1939 -3.19315 6.30384
head 8.70744 -1.57583 3.4735
rclavicle 1.02623e-014 9.54166e-015
rhumerus -38.3571 -22.2198 -73.9473
rradius 29.899
rwrist 9.8887
rhand -13.5184 8.66776
rfingers 7.12502
rthumb 12.5935 -20.9326
lclavicle 1.02623e-014 9.54166e-015
lhumerus -31.3542 5.48977 82.859
lradius 38.3933
lwrist 1.67478
lhand -17.8891 21.8545
lfingers 7.12502
lthumb 8.37738 51.6683
rfemur -11.4941 6.88963 23.804
rtibia 33.7598
rfoot -18.3402 -11.0336
rtoes 2.1467
lfemur -14.9564 -4.48821 -22.3574
ltibia 35.0063
lfoot -17.2101 1.1451
ltoes 1.57359
258
root 0.266764 17.2371 23.6219 1.4289 -0.508876 0.832861
lowerback 3.69142 -0.388977 -1.8953
upperback -0.4611 -0.549764 2.22032
thorax -2.50548 -0.232442 3.38445
lowerneck -16.5116 -3.24269 -10.4839
upperneck 18.1902 -3.12432 6.35411
head 8.67204 -1.54371 3.50717
rclavicle -9.01985e-015 3.97569e-015
rhumerus -38.5126 -22.1015 -73.9192
rradius 30.0854
rwrist 9.87342
rhand -13.6101 8.74157
rfingers 7.12502
rthumb 12.505 -20.8643
lclavicle -9.01985e-015 3.97569e-015
lhumerus -31.3673 5.48203 82.8572
lradius 37.9298
lwrist 1.79298
lhand -17.7712 22.6821
lfingers 7.12502
lthumb 8.49117 52.4914
rfemur -11.5935 6.8263 23.6925
rtibia 33.7862
rfoot -18.4395 -10.9013
rtoes 2.11477
lfemur -14.9986 -4.6372 -22.4491
ltibia 35.0165
lfoot -17.1902 1.36872
ltoes 1.43636
259
root 0.268715 17.2357 23.6275 1.45059 -0.586122 0.863657
lowerback 3.85802 -0.398556 -1.88619
upperback -0.510165 -0.563614 2.2072
thorax -2.64893 -0.236778 3.36913
lowerneck -16.6663 -3.22375 -10.3304
upperneck 18.3315 -3.10613 6.26234
head 8.74207 -1.53355 3.45393
rclavicle -1.2921e-015 -7.95139e-016
rhumerus -38.6539 -21.8541 -74.0085
rradius 30.4288
rwrist 9.60648
rhand -13.779 8.66236
rfingers 7.12502
rthumb 12.3422 -20.9533
lclavicle -1.2921e-015 -7.95139e-016
lhumerus -31.378 5.3727 82.8566
lradius 37.6289
lwrist 1.89284
lhand -17.5475 23.5574
lfingers 7.12502
lthumb 8.70704 53.3578
rfemur -11.6044 6.71683 23.6286
rtibia 33.8059
rfoot -18.5857 -10.6963
rtoes 2.38187
lfemur -14.9682 -4.70681 -22.5116
ltibia 35.0369
lfoot -17.2503 1.56489
ltoes 1.02354
260
root 0.269617 17.2362 23.6338 1.46476 -0.649526 0.857378
lowerback 3.91046 -0.443442 -1.85437
upperback -0.488212 -0.622089 2.22881
thorax -2.65164 -0.266517 3.37753
lowerneck -16.7967 -3.21567 -10.3065
upperneck 18.3463 -3.08242 6.23833
head 8.76768 -1.52147 3.44446
rclavicle 4.14963e-015 2.38542e-014
rhumerus -38.6203 -21.6177 -74.1292
rradius 30.6696
rwrist 9.39825
rhand -13.8795 8.73509
rfingers 7.12502
rthumb 12.2453 -20.8864
lclavicle 4.14963e-015 2.38542e-014
lhumerus -31.295 5.32538 82.8615
lradius 37.2608
lwrist 1.95312
lhand -17.0692 23.99
lfingers 7.12502
lthumb 9.16857 53.7707
rfemur -11.5607 6.74446 23.6322
rtibia 33.8143
rfoot -18.674 -10.6644
rtoes 2.60241
lfemur -14.9513 -4.65548 -22.5227
ltibia 35.0627
lfoot -17.318 1.64375
ltoes 0.719343
261
root 0.268227 17.2375 23.638 1.50323 -0.806657 0.751792
lowerback 3.90207 -0.47423 -1.78043
upperback -0.443968 -0.658186 2.29733
thorax -2.59873 -0.286488 3.40833
lowerneck -16.8266 -3.20865 -10.3652
upperneck 18.2539 -3.05518 6.25733
head 8.74043 -1.50909 3.46271
rclavicle -1.57537e-014 -1.43125e-014
rhumerus -38.428 -21.3228 -74.2637
rradius 30.7497
rwrist 9.25947
rhand -14.0497 8.77338
rfingers 7.12502
rthumb 12.0812 -20.8579
lclavicle -1.57537e-014 -1.43125e-014
lhumerus -31.1412 5.02933 82.9336
lradius 36.8248
lwrist 2.33932
lhand -16.7899 24.5068
lfingers 7.12502
lthumb 9.43806 54.2755
rfemur -11.5918 6.8986 23.7642
rtibia 33.7936
rfoot -18.5865 -10.702
rtoes 2.14373
lfemur -14.9872 -4.66415 -22.3982
ltibia 35.0966
lfoot -17.301 1.81177
ltoes 1.36748
262
root 0.267898 17.2381 23.644 1.56814 -0.901452 0.709467
lowerback 3.89367 -0.520542 -1.66928
upperback -0.415954 -0.715172 2.28631
thorax -2.5624 -0.317478 3.337
lowerneck -17.0799 -3.23365 -10.2989
upperneck 18.419 -3.07554 6.21276
head 8.84245 -1.51719 3.43538
rclavicle 3.2551e-015 -3.18055e-015
rhumerus -38.1419 -21.1187 -74.4444
rradius 30.6378
rwrist 9.13999
rhand -14.0465 8.69641
rfingers 7.12502
rthumb 12.0843 -20.9346
lclavicle 3.2551e-015 -3.18055e-015
lhumerus -30.9483 4.69692 82.9376
lradius 36.2731
lwrist 2.59454
lhand -16.5967 24.7609
lfingers 7.12502
lthumb 9.62443 54.521
rfemur -11.6659 6.88909 23.7999
rtibia 33.77
rfoot -18.5442 -10.6059
rtoes 1.98021
lfemur -15.0372 -4.61398 -22.3509
ltibia 35.1258
lfoot -17.3679 1.87483
ltoes 1.14096
263
root 0.26779 17.2393 23.6556 1.52103 -1.04977 0.670574
lowerback 3.94001 -0.537246 -1.61547
upperback -0.394322 -0.734689 2.31401
thorax -2.56509 -0.328013 3.33692
lowerneck -17.2256 -3.20643 -10.197
upperneck 18.5982 -3.02652 6.08266
head 8.92209 -1.50114 3.3819
rclavicle -3.65267e-015 -2.3059e-014
rhumerus -38.0639 -20.6343 -74.6371
rradius 30.76
rwrist 8.86556
rhand -14.188 8.63326
rfingers 7.12502
rthumb 11.9478 -21.0058
lclavicle -3.65267e-015 -2.3059e-014
lhumerus -30.8488 4.47377 82.9859
lradius 35.7004
lwrist 2.73187
lhand -16.4808 24.7767
lfingers 7.12502
lthumb 9.7363 54.5317
rfemur -11.5864 6.91354 23.8415
rtibia 33.7542
rfoot -18.5805 -10.5228
rtoes 1.88635
lfemur -14.953 -4.58663 -22.3246
ltibia 35.1563
lfoot -17.4628 2.01589
ltoes 0.75742
264
root 0.266816 17.2373 23.661 1.47786 -1.2739 0.721156
lowerback 4.03993 -0.522497 -1.71525
upperback -0.401149 -0.719553 2.34848
thorax -2.62781 -0.317812 3.42981
lowerneck -17.14 -3.18644 -10.1141
upperneck 18.53 -3.00168 5.96135
head 8.87796 -1.4968 3.32834
rclavicle -9.51682e-015 -7.15625e-015
rhumerus -38.0987 -20.0164 -74.8515
rradius 30.9952
rwrist 8.54608
rhand -14.485 8.28558
rfingers 7.12502
rthumb 11.6614 -21.3699
lclavicle -9.51682e-015 -7.15625e-015
lhumerus -30.8439 4.23417 83.0914
lradius 35.0139
lwrist 2.49611
lhand -16.6853 24.2756
lfingers 7.12502
lthumb 9.53895 54.0397
rfemur -11.5363 7.06659 23.795
rtibia 33.744
rfoot -18.5051 -10.5078
rtoes 1.55749
lfemur -14.9136 -4.578 -22.3956
ltibia 35.1836
lfoot -17.4286 2.25551
ltoes 0.423786
265
root 0.263194 17.2337 23.6576 1.45091 -1.50045 0.776396
lowerback 4.25813 -0.495486 -1.83352
upperback -0.438283 -0.690401 2.36049
thorax -2.78949 -0.298487 3.51119
lowerneck -17.1136 -3.16426 -9.98616
upperneck 18.4935 -2.98093 5.84199
head 8.85496 -1.49052 3.2679
rclavicle -4.91992e-015 1.03368e-014
rhumerus -38.0504 -19.5441 -75.0228
rradius 31.046
rwrist 8.23833
rhand -14.6418 8.21686
rfingers 7.12502
rthumb 11.5102 -21.4471
lclavicle -4.91992e-015 1.03368e-014
lhumerus -30.7743 3.9857 83.1571
lradius 33.9911
lwrist 1.68735
lhand -17.3084 22.7453
lfingers 7.12502
lthumb 8.93776 52.536
rfemur -11.5247 7.33861 23.7643
rtibia 33.7529
rfoot -18.4375 -10.5361
rtoes 1.45213
lfemur -14.911 -4.58514 -22.4518
ltibia 35.1829
lfoot -17.363 2.47365
ltoes 0.262134
266
root 0.262945 17.2346 23.6579 1.44924 -1.66843 0.714425
lowerback 4.3067 -0.489214 -1.75338
upperback -0.430755 -0.677794 2.37771
thorax -2.81064 -0.293071 3.4836
lowerneck -17.0534 -3.15116 -9.93111
upperneck 18.5245 -2.98281 5.83183
head 8.85367 -1.48992 3.2557
rclavicle -1.55549e-014 1.03368e-014
rhumerus -37.9707 -19.3651 -75.0641
rradius 31.0379
rwrist 8.40896
rhand -14.6791 8.60889
rfingers 7.12502
rthumb 11.4742 -21.0571
lclavicle -1.55549e-014 1.03368e-014
lhumerus -30.6437 3.65644 83.2358
lradius 33.112
lwrist 1.25726
lhand -17.4841 21.7951
lfingers 7.12502
lthumb 8.76821 51.593
rfemur -11.535 7.38193 23.8186
rtibia 33.769
rfoot -18.4503 -10.3315
rtoes 1.90733
lfemur -14.8907 -4.6186 -22.3877
ltibia 35.1646
lfoot -17.2757 2.64806
ltoes 0.572018
